<svg width="114" height="24" viewBox="0 0 114 24" fill="none" xmlns="http://www.w3.org/2000/svg">
<path d="M0.425781 7.72266L0.929688 5.34375H2.71094L3.47266 1.78125H6.77734L6.01562 5.34375H8.08984L7.58594 7.72266H5.51172L4.07031 14.4727C3.96094 14.9961 3.95703 15.3242 4.05859 15.457C4.16797 15.582 4.5625 15.6445 5.24219 15.6445C5.34375 15.6445 5.44922 15.6445 5.55859 15.6445C5.67578 15.6367 5.79297 15.6289 5.91016 15.6211L5.37109 18.1172L3.77734 18.1758C2.19141 18.2305 1.17188 17.957 0.71875 17.3555C0.429688 16.9727 0.367188 16.3828 0.53125 15.5859L2.20703 7.72266H0.425781ZM14.0195 3.70312H10.6328L11.2891 0.621094H14.6758L14.0195 3.70312ZM10.3047 5.22656H13.6914L10.9844 18H7.59766L10.3047 5.22656ZM23.5938 9.80859C23.6328 9.33203 23.5625 8.90234 23.3828 8.51953C23.1172 8.00391 22.5898 7.74609 21.8008 7.74609C20.6758 7.74609 19.7891 8.30469 19.1406 9.42188C18.7969 10.0156 18.5195 10.8047 18.3086 11.7891C18.1133 12.7266 18.0625 13.4805 18.1562 14.0508C18.3281 15.1133 18.9648 15.6445 20.0664 15.6445C20.8477 15.6445 21.4453 15.4336 21.8594 15.0117C22.2812 14.5898 22.5977 14.043 22.8086 13.3711H26.2188C25.9297 14.3867 25.3594 15.3477 24.5078 16.2539C23.1484 17.7148 21.4414 18.4453 19.3867 18.4453C17.332 18.4453 15.9492 17.8359 15.2383 16.6172C14.5352 15.3984 14.3906 13.8164 14.8047 11.8711C15.2656 9.67578 16.1602 7.96875 17.4883 6.75C18.8242 5.53125 20.4336 4.92188 22.3164 4.92188C23.918 4.92188 25.1523 5.28125 26.0195 6C26.8867 6.71875 27.2188 7.98828 27.0156 9.80859H23.5938ZM31.2109 0.785156H34.4922L32.5117 10.0898L37.6914 5.28516H41.8281L36.3203 10.1719L39.3086 18H35.2773L33.3789 12.5391L31.6797 13.9805L30.8359 18H27.5547L31.2109 0.785156ZM45.0156 10.3359H50.207C50.3398 9.45312 50.2109 8.78516 49.8203 8.33203C49.4375 7.87109 48.8906 7.64062 48.1797 7.64062C47.4062 7.64062 46.7539 7.88281 46.2227 8.36719C45.6992 8.85156 45.2969 9.50781 45.0156 10.3359ZM53.2188 7.37109C53.5625 8.12891 53.6992 9.00781 53.6289 10.0078C53.5977 10.5938 53.457 11.4375 53.207 12.5391H44.4648C44.2383 13.8203 44.4492 14.7188 45.0977 15.2344C45.4883 15.5547 46.0078 15.7148 46.6562 15.7148C47.3438 15.7148 47.9453 15.5195 48.4609 15.1289C48.7344 14.918 49.0039 14.625 49.2695 14.25H52.6797C52.4297 15.0078 51.8711 15.7773 51.0039 16.5586C49.6445 17.8008 47.9805 18.4219 46.0117 18.4219C44.3867 18.4219 43.0625 17.8984 42.0391 16.8516C41.0234 15.8047 40.7656 14.1016 41.2656 11.7422C41.7344 9.53125 42.6523 7.83594 44.0195 6.65625C45.3945 5.47656 46.9766 4.88672 48.7656 4.88672C49.8281 4.88672 50.7422 5.08594 51.5078 5.48438C52.2812 5.88281 52.8516 6.51172 53.2188 7.37109ZM55.1758 7.72266L55.6797 5.34375H57.4609L58.2227 1.78125H61.5273L60.7656 5.34375H62.8398L62.3359 7.72266H60.2617L58.8203 14.4727C58.7109 14.9961 58.707 15.3242 58.8086 15.457C58.918 15.582 59.3125 15.6445 59.9922 15.6445C60.0938 15.6445 60.1992 15.6445 60.3086 15.6445C60.4258 15.6367 60.543 15.6289 60.6602 15.6211L60.1211 18.1172L58.5273 18.1758C56.9414 18.2305 55.9219 17.957 55.4688 17.3555C55.1797 16.9727 55.1172 16.3828 55.2812 15.5859L56.957 7.72266H55.1758ZM69.0977 3.72656L68.2891 7.53516H72.5312C73.2891 7.53516 73.9336 7.39453 74.4648 7.11328C75.0039 6.82422 75.3516 6.31641 75.5078 5.58984C75.6719 4.78516 75.4727 4.25391 74.9102 3.99609C74.4023 3.81641 73.7305 3.72656 72.8945 3.72656H69.0977ZM67.6797 10.3945L66.707 15H70.9492C71.707 15 72.3164 14.8984 72.7773 14.6953C73.6289 14.3203 74.168 13.6016 74.3945 12.5391C74.582 11.6406 74.3398 11.0234 73.668 10.6875C73.293 10.5 72.7305 10.4023 71.9805 10.3945H67.6797ZM78.7891 2.56641C79.1641 3.30078 79.2461 4.17969 79.0352 5.20312C78.8086 6.25781 78.3594 7.10547 77.6875 7.74609C77.3203 8.10547 76.8164 8.43359 76.1758 8.73047C76.9883 9.05078 77.543 9.55859 77.8398 10.2539C78.1445 10.9492 78.1914 11.793 77.9805 12.7852C77.7617 13.8086 77.3086 14.7266 76.6211 15.5391C76.1758 16.0781 75.668 16.5312 75.0977 16.8984C74.457 17.3203 73.7422 17.6094 72.9531 17.7656C72.1719 17.9219 71.3398 18 70.457 18H62.6289L66.2969 0.726562H74.6875C76.7969 0.757813 78.1641 1.37109 78.7891 2.56641ZM79.6328 20.4492L80.0547 20.4727C80.375 20.4883 80.6875 20.4766 80.9922 20.4375C81.2969 20.3984 81.5664 20.3086 81.8008 20.168C82.0273 20.0352 82.2695 19.7578 82.5273 19.3359C82.7852 18.9141 82.9062 18.6562 82.8906 18.5625L81.0391 5.22656H84.7539L85.5391 14.6484L90.1797 5.22656H93.7305L86.6758 17.7891C85.3164 20.2109 84.3281 21.7109 83.7109 22.2891C83.1016 22.875 82.0586 23.168 80.582 23.168C80.2852 23.168 80.0469 23.1641 79.8672 23.1562C79.6875 23.1562 79.4219 23.1445 79.0703 23.1211L79.6328 20.4492ZM93.8711 7.72266L94.375 5.34375H96.1562L96.918 1.78125H100.223L99.4609 5.34375H101.535L101.031 7.72266H98.957L97.5156 14.4727C97.4062 14.9961 97.4023 15.3242 97.5039 15.457C97.6133 15.582 98.0078 15.6445 98.6875 15.6445C98.7891 15.6445 98.8945 15.6445 99.0039 15.6445C99.1211 15.6367 99.2383 15.6289 99.3555 15.6211L98.8164 18.1172L97.2227 18.1758C95.6367 18.2305 94.6172 17.957 94.1641 17.3555C93.875 16.9727 93.8125 16.3828 93.9766 15.5859L95.6523 7.72266H93.8711ZM105.062 10.3359H110.254C110.387 9.45312 110.258 8.78516 109.867 8.33203C109.484 7.87109 108.938 7.64062 108.227 7.64062C107.453 7.64062 106.801 7.88281 106.27 8.36719C105.746 8.85156 105.344 9.50781 105.062 10.3359ZM113.266 7.37109C113.609 8.12891 113.746 9.00781 113.676 10.0078C113.645 10.5938 113.504 11.4375 113.254 12.5391H104.512C104.285 13.8203 104.496 14.7188 105.145 15.2344C105.535 15.5547 106.055 15.7148 106.703 15.7148C107.391 15.7148 107.992 15.5195 108.508 15.1289C108.781 14.918 109.051 14.625 109.316 14.25H112.727C112.477 15.0078 111.918 15.7773 111.051 16.5586C109.691 17.8008 108.027 18.4219 106.059 18.4219C104.434 18.4219 103.109 17.8984 102.086 16.8516C101.07 15.8047 100.812 14.1016 101.312 11.7422C101.781 9.53125 102.699 7.83594 104.066 6.65625C105.441 5.47656 107.023 4.88672 108.812 4.88672C109.875 4.88672 110.789 5.08594 111.555 5.48438C112.328 5.88281 112.898 6.51172 113.266 7.37109Z" fill="#F7F6FB"/>
</svg>
